<?xml version="1.0" encoding="UTF-8"?><svg id="a" xmlns="http://www.w3.org/2000/svg" xmlns:xlink="http://www.w3.org/1999/xlink" viewBox="0 0 791.75 717.79"><defs><clipPath id="b"><rect y="304.69" width="323.91" height="308" fill="none"/></clipPath><clipPath id="c"><rect x="342.57" y="303.35" width="324.76" height="308" fill="none"/></clipPath></defs><path d="m333.42,0C181.38,0,57.35,124.03,57.35,276.07c0,6.67.44,13.33.89,20.01,12-1.78,24.01-2.67,35.56-2.67-.44-5.78-.89-11.56-.89-17.34,0-132.48,108.03-240.51,240.51-240.51s240.51,108.03,240.51,240.51c0,5.78-.45,11.56-.89,17.34,11.56.44,23.56,1.33,35.56,2.67.45-6.67.89-13.34.89-20.01C609.49,123.59,485.46,0,333.42,0" fill="#7a8c68"/><path d="m333.42,58.68c-119.59,0-217.39,97.36-217.39,217.39,0,5.78.44,11.56.89,17.34,4.44.44,8.89.44,13.33.89,8.01.89,15.56,1.78,23.12,3.11-.89-7.11-1.33-14.67-1.33-21.79,0-100.03,81.35-181.82,181.82-181.82s181.83,81.35,181.83,181.82c0,7.56-.44,14.67-1.33,22.23,7.56-1.33,15.11-2.67,23.12-3.56,3.55-.44,7.11-.44,10.67-.89h2.67c.45-5.78.89-11.56.89-17.79-1.33-119.58-98.69-216.94-218.28-216.94" fill="#7a8c68"/><path d="m333.42,120.03c-85.8,0-156.04,69.8-156.04,156.04,0,9.78.89,19.11,2.67,28.45,11.11,3.11,21.79,7.11,32.45,12l1.78.89c2.67,1.33,4.89,2.22,7.56,4-5.78-13.78-8.89-29.34-8.89-44.9,0-66.24,54.23-120.47,120.47-120.47s120.48,53.79,120.48,120.47c0,16.01-3.11,31.12-8.9,44.9,2.22-1.33,4.89-2.22,7.56-3.56.89-.44,1.78-.89,2.67-1.33,5.33-2.67,11.56-4.89,17.78-7.56l1.78-.44h.45c4-1.33,8-2.67,11.56-4,1.78-9.34,2.67-18.67,2.67-28.45,0-86.24-70.24-156.04-156.04-156.04" fill="#7a8c68"/><g clip-path="url(#b)" fill="none"><path d="m316.08,532.58c-.89,3.11-2.22,5.78-3.56,8.89,0,.45-.44.45-.44.89-.44.89-.89,1.78-.89,2.67-.44,1.33-.89,2.22-1.33,3.56-.89,2.22-2.22,4.45-3.11,6.22-4.89,9.33-10.67,18.23-16.9,26.23-.44.44-.89.89-.89,1.33l-.45.44c-13.34,16.9-25.78,28.01-27.12,29.34.45-.44.89-.89,1.34-1.33.44-.45.89-.89,1.33-1.33q.44-.45.44-.89c8.45-9.78,17.34-24.01,24.9-38.23,3.11-6.22,5.78-12.45,7.56-19.11.44-2.22.89-4.89,1.33-7.11,0-1.33.44-2.22.44-3.55,0-.89.45-1.78.45-2.67.89-7.56.44-14.67-.89-22.22-.44-1.78-.44-3.11-.89-4.89-8-35.57-28.01-69.8-66.68-99.14l-2.22-1.78c-2.22-1.78-4.89-3.56-7.11-5.33-4-2.67-8-5.34-12-8.01-3.56-2.22-7.56-4.44-11.11-6.67-10.22-5.78-21.79-11.56-34.23-16.45-4.01-1.78-7.56-3.11-12.01-4.89-6.22-2.67-12.89-4.89-19.56-7.11,6.67,2.67,12.9,5.33,19.12,8,4,1.78,8,3.56,12,5.78,12.45,6.22,24.01,13.34,34.68,20.45,8.89,6.22,17.34,12.9,24.9,20.01,1.33,1.34,2.67,2.67,4,4.01,26.67,25.34,44.9,54.68,52.9,84.02,2.22,8.45,3.56,17.34,4.01,25.79v6.22c0,2.67,0,5.33-.45,8v1.78c-16.89,1.78-32.01,2.22-45.79.89h-2.22c-1.33,0-2.67-.44-4-.44-4.89-.45-9.34-1.33-14.23-2.22h-.89c-10.23-2.22-19.56-4.89-28.45-8.45-2.22-.89-4.45-1.78-6.67-3.11-4-1.78-8-4-11.56-6.22-5.78-3.56-11.56-7.56-16.89-11.56C76.91,452.56,71.57,326.75,0,320.97c46.68-14.67,90.24-18.67,128.92-14.67,28.9,3.11,55.13,10.22,78.69,20.9.45.44,1.33.44,1.78.89,3.11,1.33,6.67,3.11,9.33,4.89,2.67,1.33,5.78,3.11,8.45,4.45,8,4.44,15.11,9.33,22.23,14.67.44.44,1.33.89,2.22,1.33,1.33.89,2.22,1.78,3.55,2.67,54.68,44.01,80.03,109.36,63.57,168.04-.44,3.11-1.33,5.78-2.67,8.45" fill="#7a8c68"/></g><g clip-path="url(#c)" fill="none"><path d="m666.84,320.97c-71.57,5.33-76.91,131.59-153.82,192.94-5.33,4.45-11.11,8.01-16.9,11.56-4,2.22-7.56,4.45-11.56,6.22-2.22.89-4.44,2.22-6.67,3.11-8.89,3.56-18.23,6.67-28.45,8.45-.44,0-.89,0-.89.44-4.44.89-9.33,1.33-14.22,2.22-1.33,0-2.67.44-4,.44-.89,0-1.33,0-2.22.45-13.78.89-28.9.89-45.79-.89v-1.33c-.44-2.67-.44-5.34-.44-8.01v-7.11c0-1.78.44-3.56.44-5.34.89-6.67,2.22-13.78,4-20.45,8.01-29.79,26.23-58.68,52.91-84.02l4-4c7.56-7.11,16.01-13.79,24.9-20.01,10.67-7.56,22.23-14.22,34.68-20.45,4-2.22,8-4,12-5.78,6.22-2.67,12.9-5.78,19.12-8-6.67,2.22-13.34,4.89-19.56,7.11-4,1.78-8,3.11-12.01,4.89-12.45,4.89-23.56,10.67-34.23,16.45-4,2.22-7.56,4.44-11.56,6.67-.45.45-.89.45-1.33.89l-.45.44c-3.56,2.22-6.67,4.45-9.78,6.67-2.67,1.78-4.89,3.55-7.11,5.33l-2.22,1.33c-6.22,4.89-12.01,9.78-17.34,15.11-27.12,25.79-42.23,54.68-48.9,84.02-.44,1.78-.44,3.11-.89,4.89-.44,2.67-.89,5.34-.89,8.01-.45,4.89-.45,9.78,0,14.22,0,.89,0,1.78.44,2.67,0,1.33.44,2.67.44,3.56.45,2.22.89,4.89,1.33,7.11,1.78,6.67,4.45,12.89,7.56,19.11,7.56,14.67,16.45,28.9,24.9,38.23,0,.44.45.44.45.89.44.45.89.89,1.33,1.33l.44.45c-3.56-3.11-14.67-13.78-26.23-28.45l-.44-.44c-.45-.45-.45-.89-.89-1.33-6.22-7.56-12.01-16.9-16.9-26.23-.89-2.22-2.22-4.45-3.11-6.22-.44-1.33-.89-2.22-1.33-3.56-.44-.89-.89-1.78-.89-2.67,0-.45-.44-.89-.44-.89-1.33-3.11-2.67-5.78-3.56-8.89-.89-2.67-2.22-5.78-2.67-8.45-4-13.78-5.33-28.01-4.89-42.23.44-11.56,2.67-23.11,5.78-34.68,2.22-8,4.89-15.56,8.44-22.67v-.44c11.56-25.34,30.23-48.9,54.24-68.02,1.33-.89,2.22-1.78,3.56-2.67.89-.44,1.33-.89,2.22-1.33,7.11-5.33,14.67-10.22,22.23-14.67,2.67-1.34,5.78-3.11,8.45-4.45,3.11-1.78,6.22-3.11,9.78-4.89.44-.44,1.33-.44,1.78-.89,5.78-2.67,11.56-4.89,17.34-7.11h.44c8.01-2.67,16.01-5.34,24.01-7.56,11.56-3.11,24.01-4.89,36.9-6.22,3.56-.45,6.67-.45,10.22-.89,35.57-1.78,75.58,2.67,118.26,16.01" fill="#7a8c68"/></g><path d="m333.42,196.49c-44.01,0-79.58,35.56-79.58,79.58s35.57,79.57,79.58,79.57,79.58-35.56,79.58-79.57-35.57-79.58-79.58-79.58Z" fill="#f2b650"/><path d="m237.32,717.35c29.22,0,53.14-17.42,53.14-46.32,0-50.76-74.03-41.02-74.03-69.8,0-9.74,8.44-16.34,19.27-16.34s19.37,5.95,24.67,16.34l22.84-13.96c-10.5-18.61-27.71-26.84-46.54-26.84-25.76,0-47.73,15.15-47.73,42.21,0,49.78,74.03,39.18,74.03,70.89,0,10.82-8.88,19.48-25.21,19.48s-29.77-8.44-31.71-27.49l-27.27,6.93c4.87,30.09,31.49,44.91,58.55,44.91Z" fill="#4b5940"/><path d="m316.64,715.63h27.49v-152.92h-27.49v152.92Z" fill="#4b5940"/><path d="m446.73,717.79c20.34,0,37.01-9.31,45.23-23.7l2.39,21.54h21.75v-82.68h-61.36v22.18h34.74c-3.03,23.27-20.78,38.1-42.75,38.1-32.79,0-46.76-24.79-46.76-55.2,0-28.35,13.96-53.79,46.32-53.79,19.48,0,35.49,9.31,42.53,30.09l24.35-10.17c-12.34-28.57-36.58-43.94-66.67-43.94-50.54,0-73.81,37.02-73.81,78.9s23.7,78.68,74.03,78.68Z" fill="#4b5940"/><path d="m531.14,715.63h29.98l11.91-33.22h59.42l11.79,33.22h29.66l-60.93-152.92h-20.56l-61.26,152.92Zm51.19-56.71l20.45-55.84,20.35,55.84h-40.8Z" fill="#4b5940"/><path d="m738.61,717.35c29.22,0,53.14-17.42,53.14-46.32,0-50.76-74.03-41.02-74.03-69.8,0-9.74,8.44-16.34,19.27-16.34s19.37,5.95,24.67,16.34l22.84-13.96c-10.5-18.61-27.71-26.84-46.54-26.84-25.76,0-47.73,15.15-47.73,42.21,0,49.78,74.03,39.18,74.03,70.89,0,10.82-8.88,19.48-25.21,19.48s-29.77-8.44-31.71-27.49l-27.27,6.93c4.87,30.09,31.49,44.91,58.55,44.91Z" fill="#4b5940"/></svg>