<svg xmlns="http://www.w3.org/2000/svg" xmlns:xlink="http://www.w3.org/1999/xlink" width="500" zoomAndPan="magnify" viewBox="0 0 375 374.999991" height="500" preserveAspectRatio="xMidYMid meet" version="1.0"><defs><g/><clipPath id="6ee82a9814"><path d="M 272.957031 144.902344 L 311 144.902344 L 311 219.152344 L 272.957031 219.152344 Z M 272.957031 144.902344 " clip-rule="nonzero"/></clipPath><clipPath id="fdcee8ebe0"><path d="M 285 145 L 332.957031 145 L 332.957031 219.152344 L 285 219.152344 Z M 285 145 " clip-rule="nonzero"/></clipPath></defs><g clip-path="url(#6ee82a9814)"><path fill="#ff8b00" d="M 290.261719 144.902344 L 306.460938 145.304688 L 292.460938 172.300781 L 310.957031 172.203125 L 275.628906 226.753906 L 290.5625 185.5 L 272.960938 185.5 Z M 290.261719 144.902344 " fill-opacity="1" fill-rule="evenodd"/></g><g clip-path="url(#fdcee8ebe0)"><path fill="#4b5940" d="M 311.585938 145.027344 L 345.894531 145.027344 L 345.894531 159.960938 L 303.84375 159.960938 Z M 285.628906 219.445312 L 345.894531 219.445312 L 345.894531 204.511719 L 295.300781 204.511719 Z M 304.894531 189.703125 L 334.640625 189.703125 L 334.640625 174.769531 L 314.5625 174.769531 Z M 304.894531 189.703125 " fill-opacity="1" fill-rule="evenodd"/></g><g fill="#4b5940" fill-opacity="1"><g transform="translate(43.282909, 218.855535)"><g><path d="M 30.714844 0.839844 C 44.867188 0.839844 56.449219 -7.601562 56.449219 -21.59375 C 56.449219 -46.175781 20.597656 -41.460938 20.597656 -55.402344 C 20.597656 -60.117188 24.6875 -63.316406 29.929688 -63.316406 C 34.90625 -63.316406 39.308594 -60.433594 41.878906 -55.402344 L 52.9375 -62.164062 C 47.855469 -71.175781 39.519531 -75.160156 30.398438 -75.160156 C 17.925781 -75.160156 7.285156 -67.824219 7.285156 -54.71875 C 7.285156 -30.609375 43.136719 -35.746094 43.136719 -20.390625 C 43.136719 -15.148438 38.839844 -10.953125 30.925781 -10.953125 C 23.0625 -10.953125 16.511719 -15.042969 15.566406 -24.265625 L 2.359375 -20.914062 C 4.71875 -6.34375 17.609375 0.839844 30.714844 0.839844 Z M 30.714844 0.839844 "/></g></g></g><g fill="#4b5940" fill-opacity="1"><g transform="translate(99.119823, 218.855535)"><g><path d="M 9.539062 0 L 22.851562 0 L 22.851562 -74.058594 L 9.539062 -74.058594 Z M 9.539062 0 "/></g></g></g><g fill="#4b5940" fill-opacity="1"><g transform="translate(127.754207, 218.855535)"><g><path d="M 40.148438 1.046875 C 50.003906 1.046875 58.074219 -3.460938 62.058594 -10.429688 L 63.210938 0 L 73.746094 0 L 73.746094 -40.042969 L 44.027344 -40.042969 L 44.027344 -29.300781 L 60.851562 -29.300781 C 59.382812 -18.03125 50.789062 -10.851562 40.148438 -10.851562 C 24.265625 -10.851562 17.507812 -22.851562 17.507812 -37.582031 C 17.507812 -51.3125 24.265625 -63.628906 39.9375 -63.628906 C 49.375 -63.628906 57.128906 -59.121094 60.539062 -49.058594 L 72.332031 -53.984375 C 66.355469 -67.824219 54.613281 -75.265625 40.042969 -75.265625 C 15.566406 -75.265625 4.296875 -57.339844 4.296875 -37.054688 C 4.296875 -16.71875 15.777344 1.046875 40.148438 1.046875 Z M 40.148438 1.046875 "/></g></g></g><g fill="#4b5940" fill-opacity="1"><g transform="translate(204.399213, 218.855535)"><g><path d="M 0.628906 0 L 15.148438 0 L 20.914062 -16.089844 L 49.6875 -16.089844 L 55.402344 0 L 69.761719 0 L 40.253906 -74.058594 L 30.296875 -74.058594 Z M 25.421875 -27.464844 L 35.328125 -54.511719 L 45.179688 -27.464844 Z M 25.421875 -27.464844 "/></g></g></g></svg>