<?xml version="1.0" encoding="UTF-8"?>
<svg id="a" data-name="Layer 1" xmlns="http://www.w3.org/2000/svg" xmlns:xlink="http://www.w3.org/1999/xlink" viewBox="0 0 32 32">
  <defs>
    <clipPath id="b">
      <rect x="2.71" y="1.3" width="26.56" height="14.29" fill="none"/>
    </clipPath>
    <clipPath id="c">
      <rect y="15.94" width="15.55" height="14.76" fill="none"/>
    </clipPath>
    <clipPath id="d">
      <rect x="16.43" y="15.89" width="15.57" height="14.76" fill="none"/>
    </clipPath>
  </defs>
  <rect width="32" height="32" rx="5" ry="5" fill="#f2f2f2"/>
  <g>
    <g clip-path="url(#b)" fill="none">
      <path d="m16,1.33C8.7,1.33,2.75,7.28,2.75,14.57c0,.32.02.64.04.96.58-.09,1.15-.13,1.71-.13-.02-.28-.04-.55-.04-.83,0-6.36,5.18-11.54,11.54-11.54s11.54,5.18,11.54,11.54c0,.28-.02.55-.04.83.55.02,1.13.06,1.71.13.02-.32.04-.64.04-.96,0-7.32-5.95-13.24-13.24-13.24" fill="#7a8c68"/>
    </g>
    <path d="m16,4.14c-5.74,0-10.43,4.67-10.43,10.43,0,.28.02.55.04.83.21.02.43.02.64.04.38.04.75.09,1.11.15-.04-.34-.06-.7-.06-1.05,0-4.8,3.9-8.72,8.72-8.72s8.72,3.9,8.72,8.72c0,.36-.02.7-.06,1.07.36-.06.73-.13,1.11-.17.17-.02.34-.02.51-.04h.13c.02-.28.04-.55.04-.85-.06-5.74-4.73-10.41-10.47-10.41" fill="#7a8c68"/>
    <path d="m16,7.09c-4.12,0-7.49,3.35-7.49,7.49,0,.47.04.92.13,1.37.53.15,1.04.34,1.56.58l.09.04c.13.06.23.11.36.19-.28-.66-.43-1.41-.43-2.15,0-3.18,2.6-5.78,5.78-5.78s5.78,2.58,5.78,5.78c0,.77-.15,1.49-.43,2.15.11-.06.23-.11.36-.17l.13-.06c.26-.13.55-.23.85-.36l.09-.02h.02c.19-.06.38-.13.55-.19.09-.45.13-.9.13-1.37,0-4.14-3.37-7.49-7.49-7.49" fill="#7a8c68"/>
    <g clip-path="url(#c)" fill="none">
      <path d="m15.16,26.88c-.04.15-.11.28-.17.43,0,.02-.02.02-.02.04-.02.04-.04.09-.04.13-.02.06-.04.11-.06.17-.04.11-.11.21-.15.3-.23.45-.51.87-.81,1.26-.02.02-.04.04-.04.06l-.02.02c-.64.81-1.24,1.34-1.3,1.41l.06-.06s.04-.04.06-.06t.02-.04c.41-.47.83-1.15,1.19-1.83.15-.3.28-.6.36-.92.02-.11.04-.23.06-.34,0-.06.02-.11.02-.17,0-.04.02-.09.02-.13.04-.36.02-.7-.04-1.07-.02-.09-.02-.15-.04-.23-.38-1.71-1.34-3.35-3.2-4.76l-.11-.09c-.11-.09-.23-.17-.34-.26-.19-.13-.38-.26-.58-.38-.17-.11-.36-.21-.53-.32-.49-.28-1.05-.55-1.64-.79-.19-.09-.36-.15-.58-.23-.3-.13-.62-.23-.94-.34.32.13.62.26.92.38.19.09.38.17.58.28.6.3,1.15.64,1.66.98.43.3.83.62,1.19.96l.19.19c1.28,1.22,2.15,2.62,2.54,4.03.11.41.17.83.19,1.24v.3c0,.13,0,.26-.02.38v.09c-.81.09-1.54.11-2.2.04h-.11c-.06,0-.13-.02-.19-.02-.23-.02-.45-.06-.68-.11h-.04c-.49-.11-.94-.23-1.36-.41-.11-.04-.21-.09-.32-.15-.19-.09-.38-.19-.55-.3-.28-.17-.55-.36-.81-.55-3.65-2.96-3.9-9-7.34-9.28,2.24-.7,4.33-.9,6.18-.7,1.39.15,2.64.49,3.77,1,.02.02.06.02.09.04.15.06.32.15.45.23.13.06.28.15.41.21.38.21.73.45,1.07.7.02.02.06.04.11.06.06.04.11.09.17.13,2.62,2.11,3.84,5.25,3.05,8.06-.02.15-.06.28-.13.41" fill="#7a8c68"/>
    </g>
    <g clip-path="url(#d)" fill="none">
      <path d="m31.99,16.73c-3.43.26-3.69,6.31-7.38,9.26-.26.21-.53.38-.81.55-.19.11-.36.21-.55.3-.11.04-.21.11-.32.15-.43.17-.87.32-1.36.41-.02,0-.04,0-.04.02-.21.04-.45.06-.68.11-.06,0-.13.02-.19.02-.04,0-.06,0-.11.02-.66.04-1.39.04-2.2-.04v-.06c-.02-.13-.02-.26-.02-.38v-.34c0-.09.02-.17.02-.26.04-.32.11-.66.19-.98.38-1.43,1.26-2.82,2.54-4.03l.19-.19c.36-.34.77-.66,1.19-.96.51-.36,1.07-.68,1.66-.98.19-.11.38-.19.58-.28.3-.13.62-.28.92-.38-.32.11-.64.23-.94.34-.19.09-.38.15-.58.23-.6.23-1.13.51-1.64.79-.19.11-.36.21-.55.32-.02.02-.04.02-.06.04l-.02.02c-.17.11-.32.21-.47.32-.13.09-.23.17-.34.26l-.11.06c-.3.23-.58.47-.83.73-1.3,1.24-2.03,2.62-2.35,4.03-.02.09-.02.15-.04.23-.02.13-.04.26-.04.38-.02.23-.02.47,0,.68,0,.04,0,.09.02.13,0,.06.02.13.02.17.02.11.04.23.06.34.09.32.21.62.36.92.36.7.79,1.39,1.19,1.83,0,.02.02.02.02.04.02.02.04.04.06.06l.02.02c-.17-.15-.7-.66-1.26-1.37l-.02-.02s-.02-.04-.04-.06c-.3-.36-.58-.81-.81-1.26-.04-.11-.11-.21-.15-.3-.02-.06-.04-.11-.06-.17-.02-.04-.04-.09-.04-.13,0-.02-.02-.04-.02-.04-.06-.15-.13-.28-.17-.43-.04-.13-.11-.28-.13-.41-.19-.66-.26-1.34-.23-2.03.02-.55.13-1.11.28-1.66.11-.38.23-.75.41-1.09v-.02c.55-1.22,1.45-2.35,2.6-3.26.06-.04.11-.09.17-.13.04-.02.06-.04.11-.06.34-.26.7-.49,1.07-.7.13-.06.28-.15.41-.21.15-.09.3-.15.47-.23.02-.02.06-.02.09-.04.28-.13.55-.23.83-.34h.02c.38-.13.77-.26,1.15-.36.55-.15,1.15-.23,1.77-.3.17-.02.32-.02.49-.04,1.71-.09,3.63.13,5.67.77" fill="#7a8c68"/>
    </g>
    <path d="m16,10.75c-2.11,0-3.82,1.71-3.82,3.82s1.71,3.82,3.82,3.82,3.82-1.71,3.82-3.82-1.71-3.82-3.82-3.82Z" fill="#f2b650"/>
  </g>
</svg>